<svg width="1000" height="1000" viewBox="0 0 1000 1000" fill="none" xmlns="http://www.w3.org/2000/svg">
<rect width="1000" height="1000" fill="#282828"/>
<path d="M92.432 721.216C87.8667 721.216 83.28 720.853 78.672 720.128C74.064 719.403 69.648 718.357 65.424 716.992V707.776C69.8187 709.227 74.384 710.336 79.12 711.104C83.8987 711.829 88.4 712.192 92.624 712.192C109.947 712.192 118.608 706.325 118.608 694.592C118.608 691.349 117.904 688.683 116.496 686.592C115.088 684.459 112.848 682.709 109.776 681.344C106.747 679.936 102.608 678.72 97.36 677.696L91.6 676.608C82 674.731 74.9813 671.701 70.544 667.52C66.1067 663.296 63.888 657.685 63.888 650.688C63.888 645.141 65.2747 640.384 68.048 636.416C70.8213 632.448 74.96 629.397 80.464 627.264C86.0107 625.131 92.8373 624.064 100.944 624.064C109.605 624.064 117.691 625.173 125.2 627.392V636.608C117.52 634.261 109.456 633.088 101.008 633.088C92.176 633.088 85.6053 634.56 81.296 637.504C77.0293 640.448 74.896 644.693 74.896 650.24C74.896 653.44 75.5147 656.107 76.752 658.24C77.9893 660.373 80.016 662.144 82.832 663.552C85.648 664.96 89.4667 666.155 94.288 667.136L100.048 668.224C107.088 669.589 112.763 671.424 117.072 673.728C121.424 676.032 124.581 678.848 126.544 682.176C128.549 685.504 129.552 689.472 129.552 694.08C129.552 699.797 128.101 704.704 125.2 708.8C122.299 712.853 118.053 715.947 112.464 718.08C106.917 720.171 100.24 721.216 92.432 721.216ZM146.764 650.56H155.852L156.62 658.688H157.26C159.948 655.787 163.233 653.525 167.116 651.904C171.041 650.283 175.308 649.472 179.916 649.472C186.017 649.472 191.393 650.667 196.044 653.056C200.695 655.403 204.364 659.157 207.052 664.32C209.783 669.44 211.148 675.968 211.148 683.904C211.148 696.192 207.884 705.493 201.356 711.808C194.828 718.08 185.249 721.216 172.62 721.216C168.183 721.216 163.148 720.789 157.516 719.936V748.16H146.764V650.56ZM172.236 712.512C181.751 712.512 188.791 710.251 193.356 705.728C197.964 701.205 200.268 694.229 200.268 684.8C200.268 667.307 192.716 658.56 177.612 658.56C173.687 658.56 169.996 659.307 166.54 660.8C163.084 662.293 160.076 664.64 157.516 667.84V710.784C159.521 711.339 161.804 711.765 164.364 712.064C166.967 712.363 169.591 712.512 172.236 712.512ZM253.063 649.472C259.804 649.472 265.33 650.283 269.639 651.904C273.991 653.525 277.255 656.235 279.431 660.032C281.65 663.829 282.759 668.949 282.759 675.392V720H273.671L272.903 712.128H272.199C269.596 714.901 266.226 717.099 262.087 718.72C257.991 720.341 253.682 721.152 249.159 721.152C244.21 721.152 239.964 720.384 236.423 718.848C232.924 717.269 230.258 715.051 228.423 712.192C226.631 709.333 225.735 705.984 225.735 702.144C225.735 696.128 227.911 691.477 232.263 688.192C236.658 684.864 243.676 682.731 253.319 681.792L272.135 679.744V674.88C272.135 670.485 271.388 667.072 269.895 664.64C268.402 662.165 266.183 660.437 263.239 659.456C260.338 658.475 256.519 657.984 251.783 657.984C248.498 657.984 244.999 658.261 241.287 658.816C237.575 659.371 233.991 660.224 230.535 661.376V652.928C233.778 651.819 237.404 650.965 241.415 650.368C245.426 649.771 249.308 649.472 253.063 649.472ZM251.591 713.216C255.431 713.216 259.122 712.512 262.663 711.104C266.204 709.653 269.362 707.52 272.135 704.704V686.72L253.959 688.704C247.772 689.429 243.335 690.795 240.647 692.8C238.002 694.805 236.679 697.643 236.679 701.312C236.679 705.109 237.916 708.053 240.391 710.144C242.866 712.192 246.599 713.216 251.591 713.216ZM334.856 721.216C323.635 721.216 315.037 718.229 309.064 712.256C303.133 706.24 300.168 697.259 300.168 685.312C300.168 673.408 303.325 664.469 309.64 658.496C315.955 652.48 325.171 649.472 337.288 649.472C343.517 649.472 349.171 650.219 354.248 651.712V660.608C351.475 659.883 348.808 659.349 346.248 659.008C343.688 658.624 340.979 658.432 338.12 658.432C329.032 658.432 322.269 660.587 317.832 664.896C313.437 669.163 311.24 675.904 311.24 685.12C311.24 694.464 313.309 701.333 317.448 705.728C321.587 710.123 327.752 712.32 335.944 712.32C338.675 712.32 341.491 712.064 344.392 711.552C347.293 711.04 350.579 710.208 354.248 709.056V717.952C348.189 720.128 341.725 721.216 334.856 721.216ZM425.806 688.704H374.798C375.097 697.152 377.486 703.296 381.966 707.136C386.446 710.933 393.209 712.832 402.254 712.832C408.057 712.832 414.67 711.808 422.094 709.76V718.144C414.755 720.192 407.673 721.216 400.846 721.216C388.686 721.216 379.491 718.293 373.262 712.448C367.033 706.56 363.918 697.515 363.918 685.312C363.918 677.589 365.155 671.061 367.63 665.728C370.147 660.352 373.753 656.299 378.446 653.568C383.182 650.837 388.857 649.472 395.47 649.472C405.241 649.472 412.729 652.565 417.934 658.752C423.182 664.939 425.806 673.899 425.806 685.632V688.704ZM395.342 657.024C388.771 657.024 383.737 659.051 380.238 663.104C376.782 667.115 374.947 673.301 374.734 681.664H415.566C415.353 673.259 413.561 667.051 410.19 663.04C406.819 659.029 401.87 657.024 395.342 657.024ZM509.702 634.24H455.11V667.712H503.11V676.672H455.11V720H444.166V625.28H509.702V634.24ZM521.514 650.56H530.474L531.306 659.648H532.01C534.698 656.619 538.111 654.229 542.25 652.48C546.389 650.731 550.634 649.856 554.986 649.856C557.418 649.856 559.786 650.069 562.09 650.496V660.288C559.999 659.947 557.482 659.776 554.538 659.776C550.613 659.776 546.581 660.587 542.442 662.208C538.303 663.787 534.911 666.133 532.266 669.248V720H521.514V650.56ZM601.515 721.216C594.688 721.216 588.779 719.915 583.787 717.312C578.795 714.709 574.912 710.72 572.139 705.344C569.408 699.968 568.043 693.269 568.043 685.248C568.043 677.355 569.408 670.741 572.139 665.408C574.87 660.075 578.731 656.085 583.723 653.44C588.715 650.795 594.646 649.472 601.515 649.472C612.054 649.472 620.246 652.459 626.091 658.432C631.979 664.363 634.923 673.301 634.923 685.248C634.923 693.141 633.536 699.776 630.763 705.152C628.032 710.528 624.15 714.56 619.115 717.248C614.123 719.893 608.256 721.216 601.515 721.216ZM601.515 712.448C616.576 712.448 624.107 703.424 624.107 685.376C624.107 675.904 622.144 669.035 618.219 664.768C614.336 660.459 608.768 658.304 601.515 658.304C594.262 658.304 588.672 660.437 584.747 664.704C580.864 668.971 578.923 675.797 578.923 685.184C578.923 703.36 586.454 712.448 601.515 712.448ZM653.389 650.56H662.349L663.117 658.496H663.821C667.192 655.595 671.053 653.376 675.405 651.84C679.757 650.261 684.301 649.472 689.037 649.472C697.186 649.472 703.544 651.669 708.109 656.064C712.717 660.459 715.021 667.328 715.021 676.672V720H704.269V676.992C704.269 670.592 702.776 665.984 699.789 663.168C696.845 660.309 692.514 658.88 686.797 658.88C682.744 658.88 678.69 659.648 674.637 661.184C670.584 662.72 667.085 665.067 664.141 668.224V720H653.389V650.56ZM768.642 712.192C771.33 712.192 774.615 711.765 778.498 710.912V719.808C774.231 720.747 770.135 721.216 766.21 721.216C758.018 721.216 751.767 719.211 747.458 715.2C743.149 711.147 740.994 705.003 740.994 696.768V659.456H726.594V650.56H740.994L742.786 625.28H751.746V650.56H777.346V659.456H751.746V694.784C751.746 700.971 753.133 705.429 755.906 708.16C758.722 710.848 762.967 712.192 768.642 712.192ZM791.389 720V650.56H802.141V720H791.389ZM796.765 635.456C794.376 635.456 792.541 634.901 791.261 633.792C789.981 632.683 789.341 631.104 789.341 629.056C789.341 627.008 789.981 625.429 791.261 624.32C792.541 623.168 794.376 622.592 796.765 622.592C799.154 622.592 800.989 623.168 802.269 624.32C803.549 625.429 804.189 627.008 804.189 629.056C804.189 631.104 803.549 632.683 802.269 633.792C800.989 634.901 799.154 635.456 796.765 635.456ZM882.431 688.704H831.423C831.722 697.152 834.111 703.296 838.591 707.136C843.071 710.933 849.834 712.832 858.879 712.832C864.682 712.832 871.295 711.808 878.719 709.76V718.144C871.38 720.192 864.298 721.216 857.471 721.216C845.311 721.216 836.116 718.293 829.887 712.448C823.658 706.56 820.543 697.515 820.543 685.312C820.543 677.589 821.78 671.061 824.255 665.728C826.772 660.352 830.378 656.299 835.071 653.568C839.807 650.837 845.482 649.472 852.095 649.472C861.866 649.472 869.354 652.565 874.559 658.752C879.807 664.939 882.431 673.899 882.431 685.632V688.704ZM851.967 657.024C845.396 657.024 840.362 659.051 836.863 663.104C833.407 667.115 831.572 673.301 831.359 681.664H872.191C871.978 673.259 870.186 667.051 866.815 663.04C863.444 659.029 858.495 657.024 851.967 657.024ZM899.639 650.56H908.599L909.431 659.648H910.135C912.823 656.619 916.236 654.229 920.375 652.48C924.514 650.731 928.759 649.856 933.111 649.856C935.543 649.856 937.911 650.069 940.215 650.496V660.288C938.124 659.947 935.607 659.776 932.663 659.776C928.738 659.776 924.706 660.587 920.567 662.208C916.428 663.787 913.036 666.133 910.391 669.248V720H899.639V650.56Z" fill="white"/>
</svg>
