<svg width="884" height="519" viewBox="0 0 884 519" fill="none" xmlns="http://www.w3.org/2000/svg">
<path d="M34.432 440.216C29.8667 440.216 25.28 439.853 20.672 439.128C16.064 438.403 11.648 437.357 7.424 435.992V426.776C11.8187 428.227 16.384 429.336 21.12 430.104C25.8987 430.829 30.4 431.192 34.624 431.192C51.9467 431.192 60.608 425.325 60.608 413.592C60.608 410.349 59.904 407.683 58.496 405.592C57.088 403.459 54.848 401.709 51.776 400.344C48.7467 398.936 44.608 397.72 39.36 396.696L33.6 395.608C24 393.731 16.9813 390.701 12.544 386.52C8.10667 382.296 5.888 376.685 5.888 369.688C5.888 364.141 7.27467 359.384 10.048 355.416C12.8213 351.448 16.96 348.397 22.464 346.264C28.0107 344.131 34.8373 343.064 42.944 343.064C51.6053 343.064 59.6907 344.173 67.2 346.392V355.608C59.52 353.261 51.456 352.088 43.008 352.088C34.176 352.088 27.6053 353.56 23.296 356.504C19.0293 359.448 16.896 363.693 16.896 369.24C16.896 372.44 17.5147 375.107 18.752 377.24C19.9893 379.373 22.016 381.144 24.832 382.552C27.648 383.96 31.4667 385.155 36.288 386.136L42.048 387.224C49.088 388.589 54.7627 390.424 59.072 392.728C63.424 395.032 66.5813 397.848 68.544 401.176C70.5493 404.504 71.552 408.472 71.552 413.08C71.552 418.797 70.1013 423.704 67.2 427.8C64.2987 431.853 60.0533 434.947 54.464 437.08C48.9173 439.171 42.24 440.216 34.432 440.216ZM88.764 369.56H97.852L98.62 377.688H99.26C101.948 374.787 105.233 372.525 109.116 370.904C113.041 369.283 117.308 368.472 121.916 368.472C128.017 368.472 133.393 369.667 138.044 372.056C142.695 374.403 146.364 378.157 149.052 383.32C151.783 388.44 153.148 394.968 153.148 402.904C153.148 415.192 149.884 424.493 143.356 430.808C136.828 437.08 127.249 440.216 114.62 440.216C110.183 440.216 105.148 439.789 99.516 438.936V467.16H88.764V369.56ZM114.236 431.512C123.751 431.512 130.791 429.251 135.356 424.728C139.964 420.205 142.268 413.229 142.268 403.8C142.268 386.307 134.716 377.56 119.612 377.56C115.687 377.56 111.996 378.307 108.54 379.8C105.084 381.293 102.076 383.64 99.516 386.84V429.784C101.521 430.339 103.804 430.765 106.364 431.064C108.967 431.363 111.591 431.512 114.236 431.512ZM195.063 368.472C201.804 368.472 207.33 369.283 211.639 370.904C215.991 372.525 219.255 375.235 221.431 379.032C223.65 382.829 224.759 387.949 224.759 394.392V439H215.671L214.903 431.128H214.199C211.596 433.901 208.226 436.099 204.087 437.72C199.991 439.341 195.682 440.152 191.159 440.152C186.21 440.152 181.964 439.384 178.423 437.848C174.924 436.269 172.258 434.051 170.423 431.192C168.631 428.333 167.735 424.984 167.735 421.144C167.735 415.128 169.911 410.477 174.263 407.192C178.658 403.864 185.676 401.731 195.319 400.792L214.135 398.744V393.88C214.135 389.485 213.388 386.072 211.895 383.64C210.402 381.165 208.183 379.437 205.239 378.456C202.338 377.475 198.519 376.984 193.783 376.984C190.498 376.984 186.999 377.261 183.287 377.816C179.575 378.371 175.991 379.224 172.535 380.376V371.928C175.778 370.819 179.404 369.965 183.415 369.368C187.426 368.771 191.308 368.472 195.063 368.472ZM193.591 432.216C197.431 432.216 201.122 431.512 204.663 430.104C208.204 428.653 211.362 426.52 214.135 423.704V405.72L195.959 407.704C189.772 408.429 185.335 409.795 182.647 411.8C180.002 413.805 178.679 416.643 178.679 420.312C178.679 424.109 179.916 427.053 182.391 429.144C184.866 431.192 188.599 432.216 193.591 432.216ZM276.856 440.216C265.635 440.216 257.037 437.229 251.064 431.256C245.133 425.24 242.168 416.259 242.168 404.312C242.168 392.408 245.325 383.469 251.64 377.496C257.955 371.48 267.171 368.472 279.288 368.472C285.517 368.472 291.171 369.219 296.248 370.712V379.608C293.475 378.883 290.808 378.349 288.248 378.008C285.688 377.624 282.979 377.432 280.12 377.432C271.032 377.432 264.269 379.587 259.832 383.896C255.437 388.163 253.24 394.904 253.24 404.12C253.24 413.464 255.309 420.333 259.448 424.728C263.587 429.123 269.752 431.32 277.944 431.32C280.675 431.32 283.491 431.064 286.392 430.552C289.293 430.04 292.579 429.208 296.248 428.056V436.952C290.189 439.128 283.725 440.216 276.856 440.216ZM367.806 407.704H316.798C317.097 416.152 319.486 422.296 323.966 426.136C328.446 429.933 335.209 431.832 344.254 431.832C350.057 431.832 356.67 430.808 364.094 428.76V437.144C356.755 439.192 349.673 440.216 342.846 440.216C330.686 440.216 321.491 437.293 315.262 431.448C309.033 425.56 305.918 416.515 305.918 404.312C305.918 396.589 307.155 390.061 309.63 384.728C312.147 379.352 315.753 375.299 320.446 372.568C325.182 369.837 330.857 368.472 337.47 368.472C347.241 368.472 354.729 371.565 359.934 377.752C365.182 383.939 367.806 392.899 367.806 404.632V407.704ZM337.342 376.024C330.771 376.024 325.737 378.051 322.238 382.104C318.782 386.115 316.947 392.301 316.734 400.664H357.566C357.353 392.259 355.561 386.051 352.19 382.04C348.819 378.029 343.87 376.024 337.342 376.024ZM451.702 353.24H397.11V386.712H445.11V395.672H397.11V439H386.166V344.28H451.702V353.24ZM463.514 369.56H472.474L473.306 378.648H474.01C476.698 375.619 480.111 373.229 484.25 371.48C488.389 369.731 492.634 368.856 496.986 368.856C499.418 368.856 501.786 369.069 504.09 369.496V379.288C501.999 378.947 499.482 378.776 496.538 378.776C492.613 378.776 488.581 379.587 484.442 381.208C480.303 382.787 476.911 385.133 474.266 388.248V439H463.514V369.56ZM543.515 440.216C536.688 440.216 530.779 438.915 525.787 436.312C520.795 433.709 516.912 429.72 514.139 424.344C511.408 418.968 510.043 412.269 510.043 404.248C510.043 396.355 511.408 389.741 514.139 384.408C516.87 379.075 520.731 375.085 525.723 372.44C530.715 369.795 536.646 368.472 543.515 368.472C554.054 368.472 562.246 371.459 568.091 377.432C573.979 383.363 576.923 392.301 576.923 404.248C576.923 412.141 575.536 418.776 572.763 424.152C570.032 429.528 566.15 433.56 561.115 436.248C556.123 438.893 550.256 440.216 543.515 440.216ZM543.515 431.448C558.576 431.448 566.107 422.424 566.107 404.376C566.107 394.904 564.144 388.035 560.219 383.768C556.336 379.459 550.768 377.304 543.515 377.304C536.262 377.304 530.672 379.437 526.747 383.704C522.864 387.971 520.923 394.797 520.923 404.184C520.923 422.36 528.454 431.448 543.515 431.448ZM595.389 369.56H604.349L605.117 377.496H605.821C609.192 374.595 613.053 372.376 617.405 370.84C621.757 369.261 626.301 368.472 631.037 368.472C639.186 368.472 645.544 370.669 650.109 375.064C654.717 379.459 657.021 386.328 657.021 395.672V439H646.269V395.992C646.269 389.592 644.776 384.984 641.789 382.168C638.845 379.309 634.514 377.88 628.797 377.88C624.744 377.88 620.69 378.648 616.637 380.184C612.584 381.72 609.085 384.067 606.141 387.224V439H595.389V369.56ZM710.642 431.192C713.33 431.192 716.615 430.765 720.498 429.912V438.808C716.231 439.747 712.135 440.216 708.21 440.216C700.018 440.216 693.767 438.211 689.458 434.2C685.149 430.147 682.994 424.003 682.994 415.768V378.456H668.594V369.56H682.994L684.786 344.28H693.746V369.56H719.346V378.456H693.746V413.784C693.746 419.971 695.133 424.429 697.906 427.16C700.722 429.848 704.967 431.192 710.642 431.192ZM733.389 439V369.56H744.141V439H733.389ZM738.765 354.456C736.376 354.456 734.541 353.901 733.261 352.792C731.981 351.683 731.341 350.104 731.341 348.056C731.341 346.008 731.981 344.429 733.261 343.32C734.541 342.168 736.376 341.592 738.765 341.592C741.154 341.592 742.989 342.168 744.269 343.32C745.549 344.429 746.189 346.008 746.189 348.056C746.189 350.104 745.549 351.683 744.269 352.792C742.989 353.901 741.154 354.456 738.765 354.456ZM824.431 407.704H773.423C773.722 416.152 776.111 422.296 780.591 426.136C785.071 429.933 791.834 431.832 800.879 431.832C806.682 431.832 813.295 430.808 820.719 428.76V437.144C813.38 439.192 806.298 440.216 799.471 440.216C787.311 440.216 778.116 437.293 771.887 431.448C765.658 425.56 762.543 416.515 762.543 404.312C762.543 396.589 763.78 390.061 766.255 384.728C768.772 379.352 772.378 375.299 777.071 372.568C781.807 369.837 787.482 368.472 794.095 368.472C803.866 368.472 811.354 371.565 816.559 377.752C821.807 383.939 824.431 392.899 824.431 404.632V407.704ZM793.967 376.024C787.396 376.024 782.362 378.051 778.863 382.104C775.407 386.115 773.572 392.301 773.359 400.664H814.191C813.978 392.259 812.186 386.051 808.815 382.04C805.444 378.029 800.495 376.024 793.967 376.024ZM841.639 369.56H850.599L851.431 378.648H852.135C854.823 375.619 858.236 373.229 862.375 371.48C866.514 369.731 870.759 368.856 875.111 368.856C877.543 368.856 879.911 369.069 882.215 369.496V379.288C880.124 378.947 877.607 378.776 874.663 378.776C870.738 378.776 866.706 379.587 862.567 381.208C858.428 382.787 855.036 385.133 852.391 388.248V439H841.639V369.56Z" fill="white"/>
<path fill-rule="evenodd" clip-rule="evenodd" d="M252.37 179.054C200.792 216.305 163 275.549 163 350C163 273.087 195.068 211.822 248.28 173.391C301.39 135.034 372.008 115.968 442.441 115.968C512.874 115.968 583.493 135.034 636.602 173.391C689.814 211.822 721.882 273.087 721.882 350C721.882 275.549 684.09 216.305 632.512 179.054C580.831 141.729 511.729 122.954 442.441 122.954C373.153 122.954 304.052 141.729 252.37 179.054Z" fill="white"/>
<path fill-rule="evenodd" clip-rule="evenodd" d="M556.097 6.14347L647.132 0L568.942 82.6576V41.8873C496.931 73.066 444.187 94.2126 409.212 134.598C373.139 176.251 341.929 233.374 332.76 307.825C342.189 231.264 363.281 175.451 402.203 130.508C439.687 87.2249 487.972 55.0837 561.123 23.4569L556.097 6.14347Z" fill="white"/>
<path d="M188.628 476.205C144.42 485.33 61.5039 509.919 34 518.862C61.1155 510.045 145.089 488.692 188.628 479.705C276.016 461.668 383.027 447.056 470.5 479.705C585.719 522.711 779.033 501.345 856.246 487.296L845.5 476.205C769.208 490.002 588.188 514.26 477.122 472.804C385.56 438.628 276.73 458.021 188.628 476.205Z" fill="white"/>
</svg>
